<svg xmlns="http://www.w3.org/2000/svg" width="1300" height="420" viewBox="0 0 1300 420" font-family="-apple-system,Segoe UI,Helvetica,Arial,sans-serif">
<defs>
  <linearGradient id="bg" x1="0" y1="0" x2="0" y2="1"><stop offset="0" stop-color="#1b2a4a"/><stop offset="1" stop-color="#0a0e1a"/></linearGradient>
  <filter id="glow" x="-60%" y="-60%" width="220%" height="220%"><feGaussianBlur stdDeviation="2" result="b"/><feMerge><feMergeNode in="b"/><feMergeNode in="SourceGraphic"/></feMerge></filter>
</defs>
<rect width="1300" height="420" fill="url(#bg)"/>
<rect x="72" y="108" width="200" height="200" rx="47" fill="#0c1120" stroke="#2b3c5e" stroke-width="1.5"/>
<circle cx="112.0" cy="148.0" r="5.2" fill="#ffcc6b" filter="url(#glow)"/>
<circle cx="112.0" cy="268.0" r="5.2" fill="#ffcc6b" filter="url(#glow)"/>
<circle cx="138.0" cy="148.0" r="5.2" fill="#ffcc6b" filter="url(#glow)"/>
<circle cx="138.0" cy="268.0" r="5.2" fill="#ffcc6b" filter="url(#glow)"/>
<circle cx="164.0" cy="148.0" r="5.2" fill="#ffcc6b" filter="url(#glow)"/>
<circle cx="164.0" cy="268.0" r="5.2" fill="#ffcc6b" filter="url(#glow)"/>
<circle cx="190.0" cy="148.0" r="5.2" fill="#ffcc6b" filter="url(#glow)"/>
<circle cx="190.0" cy="268.0" r="5.2" fill="#ffcc6b" filter="url(#glow)"/>
<circle cx="216.0" cy="148.0" r="5.2" fill="#ffcc6b" filter="url(#glow)"/>
<circle cx="216.0" cy="268.0" r="5.2" fill="#ffcc6b" filter="url(#glow)"/>
<circle cx="112.0" cy="148.0" r="5.2" fill="#ffcc6b" filter="url(#glow)"/>
<circle cx="232.0" cy="148.0" r="5.2" fill="#ffcc6b" filter="url(#glow)"/>
<circle cx="112.0" cy="174.0" r="5.2" fill="#ffcc6b" filter="url(#glow)"/>
<circle cx="232.0" cy="174.0" r="5.2" fill="#ffcc6b" filter="url(#glow)"/>
<circle cx="112.0" cy="200.0" r="5.2" fill="#ffcc6b" filter="url(#glow)"/>
<circle cx="232.0" cy="200.0" r="5.2" fill="#ffcc6b" filter="url(#glow)"/>
<circle cx="112.0" cy="226.0" r="5.2" fill="#ffcc6b" filter="url(#glow)"/>
<circle cx="232.0" cy="226.0" r="5.2" fill="#ffcc6b" filter="url(#glow)"/>
<circle cx="112.0" cy="252.0" r="5.2" fill="#ffcc6b" filter="url(#glow)"/>
<circle cx="232.0" cy="252.0" r="5.2" fill="#ffcc6b" filter="url(#glow)"/>
<polyline points="132.0,208.0 134.0,210.3 136.0,212.6 138.0,214.8 140.0,216.8 142.0,218.6 144.0,220.1 146.0,221.4 148.0,222.3 150.0,222.8 152.0,223.0 154.0,222.8 156.0,222.3 158.0,221.4 160.0,220.1 162.0,218.6 164.0,216.8 166.0,214.8 168.0,212.6 170.0,210.3 172.0,208.0 174.0,205.7 176.0,203.4 178.0,201.2 180.0,199.2 182.0,197.4 184.0,195.9 186.0,194.6 188.0,193.7 190.0,193.2 192.0,193.0 194.0,193.2 196.0,193.7 198.0,194.6 200.0,195.9 202.0,197.4 204.0,199.2 206.0,201.2 208.0,203.4 210.0,205.7 212.0,208.0" fill="none" stroke="#ffcc6b" stroke-width="7.0" stroke-linecap="round"/>
<text x="312" y="190" fill="#ffffff" font-size="66" font-weight="700">MotionSick</text>
<text x="316" y="236" fill="#9fb0c8" font-size="23">Peripheral motion cues that ease motion sickness</text>
<text x="316" y="274" fill="#ffcc6b" font-size="18" font-weight="600">free &#183; open-source &#183; macOS &amp; Windows</text>
<rect x="988" y="104" width="236" height="212" rx="20" fill="#0c111d" stroke="#243248" stroke-width="2"/>
<circle cx="1030.0" cy="138.8" r="6" fill="#ffcc6b" opacity="0.9" filter="url(#glow)"/>
<circle cx="1030.0" cy="290.8" r="6" fill="#ffcc6b" opacity="0.9" filter="url(#glow)"/>
<circle cx="1068.0" cy="138.8" r="6" fill="#ffcc6b" opacity="0.9" filter="url(#glow)"/>
<circle cx="1068.0" cy="290.8" r="6" fill="#ffcc6b" opacity="0.9" filter="url(#glow)"/>
<circle cx="1106.0" cy="138.8" r="6" fill="#ffcc6b" opacity="0.9" filter="url(#glow)"/>
<circle cx="1106.0" cy="290.8" r="6" fill="#ffcc6b" opacity="0.9" filter="url(#glow)"/>
<circle cx="1144.0" cy="138.8" r="6" fill="#ffcc6b" opacity="0.9" filter="url(#glow)"/>
<circle cx="1144.0" cy="290.8" r="6" fill="#ffcc6b" opacity="0.9" filter="url(#glow)"/>
<circle cx="1182.0" cy="138.8" r="6" fill="#ffcc6b" opacity="0.9" filter="url(#glow)"/>
<circle cx="1182.0" cy="290.8" r="6" fill="#ffcc6b" opacity="0.9" filter="url(#glow)"/>
<circle cx="1030.0" cy="138.8" r="6" fill="#ffcc6b" opacity="0.9" filter="url(#glow)"/>
<circle cx="1206.0" cy="138.8" r="6" fill="#ffcc6b" opacity="0.9" filter="url(#glow)"/>
<circle cx="1030.0" cy="176.8" r="6" fill="#ffcc6b" opacity="0.9" filter="url(#glow)"/>
<circle cx="1206.0" cy="176.8" r="6" fill="#ffcc6b" opacity="0.9" filter="url(#glow)"/>
<circle cx="1030.0" cy="214.8" r="6" fill="#ffcc6b" opacity="0.9" filter="url(#glow)"/>
<circle cx="1206.0" cy="214.8" r="6" fill="#ffcc6b" opacity="0.9" filter="url(#glow)"/>
<circle cx="1030.0" cy="252.8" r="6" fill="#ffcc6b" opacity="0.9" filter="url(#glow)"/>
<circle cx="1206.0" cy="252.8" r="6" fill="#ffcc6b" opacity="0.9" filter="url(#glow)"/>
<circle cx="1030.0" cy="290.8" r="6" fill="#ffcc6b" opacity="0.9" filter="url(#glow)"/>
<circle cx="1206.0" cy="290.8" r="6" fill="#ffcc6b" opacity="0.9" filter="url(#glow)"/>
<text x="1106" y="216" fill="#3a4a66" font-size="18" text-anchor="middle">your screen</text>
</svg>